<svg width="25" height="37" viewBox="0 0 25 37" fill="none" xmlns="http://www.w3.org/2000/svg">
<path d="M2.35071 23.7638L11.6106 6.66882L21.6425 23.7638L19.156 30.8081L11.6106 35.0174L5.26591 30.8081L2.35071 23.7638Z" fill="#FF0000" stroke="black"/>
<path d="M2.43306 30.61L2.43365 30.6106C4.51631 34.1877 8.21587 36.3609 12.3824 36.3609C16.5489 36.3609 20.2487 34.1877 22.3311 30.6106L22.3317 30.61C24.4146 26.99 24.4146 22.6865 22.3317 19.0661L22.3314 19.0659L12.5088 2.0746L12.3824 1.85605L12.2559 2.0746L2.43335 19.0659L2.43306 19.0661C0.350397 22.6865 0.350397 26.99 2.43306 30.61ZM5.58218 20.8953L5.58246 20.895L12.3824 9.16829L19.1817 20.8939C19.1817 20.8939 19.182 20.8942 19.182 20.8945C20.5834 23.3729 20.5834 26.3036 19.182 28.782C17.7806 31.2177 15.2266 32.7037 12.3824 32.7037C9.53666 32.7037 6.98356 31.2587 5.58305 28.7826L5.58218 28.7809C4.13961 26.303 4.13961 23.3732 5.58218 20.8953Z" fill="black" stroke="black"/>
<path d="M11.5428 30.7473V27.3827C13.6418 27.3827 15.3209 25.7003 15.3209 23.5976H18.6791C18.6791 27.5509 15.4888 30.7473 11.5428 30.7473Z" fill="white"/>
</svg>
