<svg width="139" height="67" viewBox="0 0 139 67" fill="none" xmlns="http://www.w3.org/2000/svg">
<path d="M21.3464 14.7458C23.1453 14.7458 24.5372 15.2608 25.5223 16.2906C26.5502 17.3205 27.0641 18.6722 27.0641 20.3457C27.0641 21.7618 26.6787 22.9419 25.9077 23.8859C25.1368 24.83 23.9804 25.302 22.4386 25.302C21.1537 25.302 20.1258 24.9587 19.3549 24.2721C18.584 23.5855 18.1985 22.6415 18.1985 21.44C18.1985 20.5818 18.3698 19.9381 18.7125 19.509C19.0979 19.037 19.2906 18.7366 19.2906 18.6078C19.2906 18.4791 19.2264 18.3718 19.0979 18.286C18.9694 18.1573 18.7981 18.0929 18.584 18.0929C17.8559 18.0929 17.085 18.6293 16.2712 19.7021C15.5003 20.7319 14.8364 22.0407 14.2796 23.6285C13.7229 25.2162 13.4445 26.7395 13.4445 28.1985H13.3802V40.2995C13.3802 41.2436 13.4873 41.93 13.7014 42.3592C13.9584 42.7884 14.4081 43.0886 15.0506 43.2603C15.7358 43.4321 16.828 43.5178 18.327 43.5178V45.6419H0.146027V43.5178C1.38807 43.5178 2.28748 43.4321 2.84426 43.2603C3.40105 43.0886 3.76508 42.7884 3.9364 42.3592C4.15054 41.93 4.25762 41.2436 4.25762 40.2995V21.2469C4.25762 20.2599 4.12914 19.6163 3.87216 19.3159C3.65803 18.9726 3.16548 18.8009 2.39456 18.8009H0.274514V16.6768L10.3608 15.0677H13.1233V20.9894H13.316C15.2861 16.827 17.9629 14.7458 21.3464 14.7458ZM57.8734 30.7732H38.6645C38.793 34.8496 39.4354 37.8105 40.5918 39.6558C41.7482 41.4581 43.6755 42.3592 46.3737 42.3592C50.3998 42.3592 53.2907 40.3638 55.0466 36.3731L57.2309 37.5317C56.1175 40.1921 54.5543 42.3378 52.5411 43.9684C50.5712 45.5562 47.5731 46.3499 43.547 46.3499C38.793 46.3499 35.1953 45.0412 32.7541 42.4236C30.3128 39.7632 29.0923 35.8151 29.0923 30.5801C29.0923 25.302 30.3344 21.3327 32.8183 18.6722C35.3025 16.0117 38.9431 14.6815 43.7398 14.6815C53.1623 14.6815 57.8734 19.8523 57.8734 30.1939V30.7732ZM48.3011 28.456C48.3011 25.6667 48.1726 23.4783 47.9156 21.8906C47.7015 20.2599 47.2518 19.037 46.5665 18.2216C45.8814 17.4063 44.9178 16.9987 43.6755 16.9987C42.0052 16.9987 40.7632 17.8569 39.9494 19.5733C39.1358 21.2469 38.7074 24.2078 38.6645 28.456H48.3011ZM95.1689 40.2995C95.1689 41.2436 95.2547 41.93 95.4259 42.3592C95.5973 42.7884 95.9398 43.0886 96.4538 43.2603C97.0106 43.4321 97.8458 43.5178 98.9593 43.5178V45.6419H81.9347V43.5178C83.1769 43.5178 84.0763 43.4321 84.6329 43.2603C85.2327 43.0886 85.6182 42.7884 85.7893 42.3592C86.0036 41.93 86.1105 41.2436 86.1105 40.2995V20.1526C86.1105 19.1657 85.982 18.522 85.7251 18.2216C85.511 17.8784 85.0184 17.7067 84.2475 17.7067H74.8036V40.2995C74.8036 41.2863 74.9108 41.9944 75.1248 42.4236C75.3818 42.8528 75.8315 43.153 76.474 43.3247C77.1593 43.4534 78.2728 43.5178 79.8146 43.5178V45.6419H61.5694V43.5178C62.8117 43.5178 63.7111 43.4321 64.2677 43.2603C64.8245 43.0886 65.1887 42.7884 65.3598 42.3592C65.5741 41.93 65.681 41.2436 65.681 40.2995V17.7067H61.5694V15.3895H65.681V12.7505C65.681 8.93138 67.0731 5.90614 69.8569 3.67475C72.6836 1.40045 76.6241 0.263306 81.6777 0.263306C85.3183 0.263306 88.2948 0.885519 90.6076 2.12994C92.9633 3.33147 94.141 5.06937 94.141 7.34366C94.141 8.67391 93.7555 9.74667 92.9846 10.562C92.2137 11.3773 91.1431 11.785 89.7724 11.785C88.5305 11.785 87.5455 11.4417 86.8172 10.7551C86.0892 10.0256 85.7251 9.10301 85.7251 7.98732C85.7251 7.38658 85.8109 6.89309 85.982 6.50689C86.1964 6.12069 86.4747 5.73449 86.8172 5.34829C87.2027 4.91916 87.3954 4.57588 87.3954 4.31842C87.3954 3.76056 86.9244 3.28855 85.982 2.90234C85.0826 2.47323 83.9262 2.25868 82.5129 2.25868C80.029 2.25868 78.123 2.96671 76.7952 4.38278C75.4677 5.79885 74.8036 7.90151 74.8036 10.6907V15.3895H83.4123L92.3422 14.4884H95.1689V40.2995ZM101.676 43.5178C102.96 43.5178 103.881 43.4321 104.438 43.2603C104.995 43.0886 105.359 42.8098 105.53 42.4236C105.702 41.9944 105.787 41.2863 105.787 40.2995V7.47239C105.787 6.44252 105.659 5.77741 105.402 5.47702C105.188 5.13374 104.695 4.96208 103.924 4.96208H101.804V2.83798L112.147 1.22881H114.91V40.2995C114.91 41.2436 114.996 41.93 115.167 42.3592C115.338 42.7884 115.681 43.0886 116.195 43.2603C116.709 43.4321 117.522 43.5178 118.636 43.5178V45.6419H101.676V43.5178ZM121.948 43.5178C123.233 43.5178 124.153 43.4321 124.71 43.2603C125.267 43.0886 125.631 42.8098 125.802 42.4236C125.973 41.9944 126.059 41.2863 126.059 40.2995V7.47239C126.059 6.44252 125.931 5.77741 125.674 5.47702C125.459 5.13374 124.967 4.96208 124.196 4.96208H122.076V2.83798L132.419 1.22881H135.182V40.2995C135.182 41.2436 135.267 41.93 135.439 42.3592C135.61 42.7884 135.953 43.0886 136.467 43.2603C136.981 43.4321 137.794 43.5178 138.908 43.5178V45.6419H121.948V43.5178Z" fill="black"/>
<path d="M100.351 50.7638L109.611 33.6688L119.642 50.7638L117.156 57.8081L109.611 62.0174L103.266 57.8081L100.351 50.7638Z" fill="#FF0000" stroke="black"/>
<path d="M100.433 57.61L100.434 57.6106C102.516 61.1877 106.216 63.3609 110.382 63.3609C114.549 63.3609 118.249 61.1877 120.331 57.6106L120.332 57.61C122.415 53.99 122.415 49.6865 120.332 46.0661L120.331 46.0659L110.509 29.0746L110.382 28.856L110.256 29.0746L100.433 46.0659L100.433 46.0661C98.3504 49.6865 98.3504 53.99 100.433 57.61ZM103.582 47.8953L103.582 47.895L110.382 36.1683L117.182 47.8939C117.182 47.8939 117.182 47.8942 117.182 47.8945C118.583 50.3729 118.583 53.3036 117.182 55.782C115.781 58.2177 113.227 59.7037 110.382 59.7037C107.537 59.7037 104.984 58.2587 103.583 55.7826L103.582 55.7809C102.14 53.303 102.14 50.3732 103.582 47.8953Z" fill="black" stroke="black"/>
<path d="M109.543 57.7473V54.3827C111.642 54.3827 113.321 52.7003 113.321 50.5976H116.679C116.679 54.5509 113.489 57.7473 109.543 57.7473Z" fill="white"/>
</svg>
